<svg xmlns="http://www.w3.org/2000/svg" viewBox="0 0 708.66 168.56"><defs><style>.cls-1{fill:#f2e5db;}.cls-2{fill:#39434e;}.cls-3{fill:#e7cfbe;}.cls-4{fill:#826b54;}.cls-5{fill:#9e8166;fill-rule:evenodd;}</style></defs><title>candelaria_di_pietro-logo</title><g id="Capa_2" data-name="Capa 2"><g id="Capa_1-2" data-name="Capa 1"><path class="cls-1" d="M707.16,52.18H138L86.88,1a3.75,3.75,0,0,0-5.16,0L1.07,81.68a3.65,3.65,0,0,0,0,5.16l80.65,80.65a3.6,3.6,0,0,0,2.58,1.07h0a3.61,3.61,0,0,0,2.58-1.07L138,116.39H707.16a1.51,1.51,0,0,0,1.5-1.51V53.68A1.5,1.5,0,0,0,707.16,52.18Zm-622,113.55a1.16,1.16,0,0,1-1.62,0L2.84,85.08a1.15,1.15,0,0,1-.34-.82,1.11,1.11,0,0,1,.34-.81L83.49,2.8a1.16,1.16,0,0,1,1.62,0l80.65,80.65a1.1,1.1,0,0,1,.33.81,1.14,1.14,0,0,1-.33.82Z"/><path class="cls-2" d="M203.85,94a2.87,2.87,0,0,0-.45-1.12,2.78,2.78,0,0,0-.68-.79,9.52,9.52,0,0,1-2.89,2.1,7.84,7.84,0,0,1-3.32.75,9.72,9.72,0,0,1-7.25-3.11,10.84,10.84,0,0,1,0-15,9.74,9.74,0,0,1,7.27-3.12,7.81,7.81,0,0,1,3.32.74,9.41,9.41,0,0,1,2.9,2.11,3.69,3.69,0,0,0,1.14-1.91h.67V82h-.71a9.88,9.88,0,0,0-2.58-5.13A6.34,6.34,0,0,0,196.64,75a6,6,0,0,0-5.47,2.83,12.51,12.51,0,0,0,0,12.93,6.09,6.09,0,0,0,5.49,2.81,6.34,6.34,0,0,0,4.63-1.86,9.88,9.88,0,0,0,2.6-5.1h.67V94Z"/><path class="cls-2" d="M217.66,91.07a3.34,3.34,0,0,0-.29,1.21,1.07,1.07,0,0,0,.7,1,5.75,5.75,0,0,0,2.21.32v.7h-7.83v-.7a4.47,4.47,0,0,0,2.58-.49,7.68,7.68,0,0,0,1.44-2.43l7.36-17h.43l7.4,17a12.57,12.57,0,0,0,1.2,2.25c.33.44,1.26.67,2.78.67v.7h-9.27v-.7c1.94,0,2.91-.45,2.91-1.34a3,3,0,0,0-.31-1.2l-1.61-3.72h-8.1Zm5.62-13-3.45,8.07h6.95Z"/><path class="cls-2" d="M259.89,78.81c0-1.66-.18-2.73-.55-3.18S258.1,75,256.72,75v-.71h7.62V75c-1.38,0-2.26.22-2.64.68s-.57,1.52-.57,3.2V94.89h-.77L246.75,78.06V89.7c0,1.7.18,2.77.55,3.23s1.25.69,2.66.69v.7h-7.63v-.7c1.36,0,2.23-.24,2.61-.71s.57-1.54.57-3.21V78.83a5.82,5.82,0,0,0-.56-3.2c-.36-.46-1.24-.68-2.62-.68v-.71h4.72l12.84,15.87Z"/><path class="cls-2" d="M273.28,93.62c1.36,0,2.23-.24,2.61-.71s.57-1.54.57-3.21V78.83a5.82,5.82,0,0,0-.56-3.2c-.36-.46-1.24-.68-2.62-.68v-.71h9.06q5.57,0,8.37,2.81a10.75,10.75,0,0,1,0,14.47c-1.87,1.87-4.66,2.8-8.39,2.8h-9.06Zm5.85-4.42q0,2.53.54,3.21c.36.45,1.21.67,2.57.67h.14q4.41,0,6.17-2.59a11.85,11.85,0,0,0,0-12.43q-1.76-2.58-6.17-2.58h-3.25Z"/><path class="cls-2" d="M303.82,93.62c1.37,0,2.24-.24,2.61-.71s.57-1.54.57-3.21V78.83c0-1.68-.18-2.74-.55-3.2s-1.24-.68-2.63-.68v-.71h15.26l.3,4.42h-.7l-.17-.67a3.79,3.79,0,0,0-1.05-2,5,5,0,0,0-2.83-.52h-4.95V83h1.67c1.68,0,2.74-.18,3.2-.55s.68-1.25.68-2.66h.71v7.66h-.71c0-1.4-.22-2.29-.68-2.66s-1.52-.55-3.2-.55h-1.67v4.9c0,1.68.18,2.75.55,3.21s1.25.69,2.63.69h2.88a5,5,0,0,0,2.82-.54,3.57,3.57,0,0,0,1.06-2l.16-.67h.71l-.27,4.45h-16.4Z"/><path class="cls-2" d="M330,93.62c1.36,0,2.23-.24,2.61-.71s.57-1.54.57-3.21V78.83c0-1.68-.18-2.74-.55-3.2S331.4,75,330,75v-.71h9V75c-1.39,0-2.26.22-2.63.68s-.55,1.52-.55,3.2V89.2c0,1.67.18,2.74.55,3.19s1.24.69,2.63.69h4a5,5,0,0,0,2.81-.52,3.58,3.58,0,0,0,1-2l.17-.67h.7l-.27,4.45H330Z"/><path class="cls-2" d="M358.62,91.07a3.14,3.14,0,0,0-.29,1.21,1.07,1.07,0,0,0,.7,1,5.72,5.72,0,0,0,2.21.32v.7h-7.83v-.7a4.43,4.43,0,0,0,2.57-.49,7.68,7.68,0,0,0,1.44-2.43l7.37-17h.43l7.39,17A12.47,12.47,0,0,0,373.82,93c.33.44,1.26.67,2.78.67v.7h-9.27v-.7c1.94,0,2.91-.45,2.91-1.34a3.13,3.13,0,0,0-.31-1.2l-1.61-3.72h-8.1Zm5.62-13-3.45,8.07h6.95Z"/><path class="cls-2" d="M396.63,89.37a16.54,16.54,0,0,0,3.15,3,7,7,0,0,0,3.08,1.29v.7h-5.52l-6.62-8.8h-1.58V89.7a6,6,0,0,0,.55,3.23c.37.46,1.25.69,2.63.69v.7h-9v-.7c1.36,0,2.23-.24,2.61-.71s.57-1.54.57-3.21V78.83a5.82,5.82,0,0,0-.56-3.2c-.36-.46-1.24-.68-2.62-.68v-.71h8.83a8,8,0,0,1,5.3,1.59,5.33,5.33,0,0,1,.32,7.85,7.12,7.12,0,0,1-4.39,1.84Zm-.29-9.47a4.69,4.69,0,0,0-1.07-3.18,4,4,0,0,0-3.18-1.24h-2.95v8.83h2.95a4,4,0,0,0,3.18-1.22A4.68,4.68,0,0,0,396.34,79.9Z"/><path class="cls-2" d="M410.72,94.32v-.7c1.36,0,2.23-.24,2.61-.71s.57-1.54.57-3.21V78.83c0-1.68-.18-2.74-.55-3.2s-1.24-.68-2.63-.68v-.71h9V75c-1.39,0-2.26.22-2.63.68s-.55,1.52-.55,3.2V89.7c0,1.7.18,2.77.55,3.23s1.24.69,2.63.69v.7Z"/><path class="cls-2" d="M431.66,91.07a3.14,3.14,0,0,0-.29,1.21,1.07,1.07,0,0,0,.7,1,5.72,5.72,0,0,0,2.21.32v.7h-7.83v-.7a4.43,4.43,0,0,0,2.57-.49,7.68,7.68,0,0,0,1.44-2.43l7.36-17h.44l7.39,17A12.47,12.47,0,0,0,446.86,93c.33.44,1.26.67,2.78.67v.7h-9.27v-.7c1.94,0,2.91-.45,2.91-1.34a3.13,3.13,0,0,0-.31-1.2l-1.61-3.72h-8.1Zm5.62-13-3.45,8.07h6.95Z"/><path class="cls-2" d="M470.81,93.62c1.36,0,2.23-.24,2.61-.71s.57-1.54.57-3.21V78.83c0-1.68-.18-2.74-.55-3.2S472.2,75,470.81,75v-.71h9.07q5.55,0,8.36,2.81a10.75,10.75,0,0,1,0,14.47q-2.79,2.81-8.38,2.8h-9.07Zm5.86-4.42a6.1,6.1,0,0,0,.53,3.21c.36.45,1.22.67,2.58.67h.14q4.41,0,6.17-2.59a11.91,11.91,0,0,0,0-12.43q-1.75-2.58-6.17-2.58h-3.25Z"/><path class="cls-2" d="M501.36,94.32v-.7c1.36,0,2.23-.24,2.61-.71s.57-1.54.57-3.21V78.83a5.94,5.94,0,0,0-.55-3.2c-.37-.46-1.25-.68-2.63-.68v-.71h9V75c-1.38,0-2.26.22-2.62.68a5.82,5.82,0,0,0-.56,3.2V89.7c0,1.7.19,2.77.56,3.23s1.24.69,2.62.69v.7Z"/><path class="cls-2" d="M550.14,79.9a5,5,0,0,1-1.89,4,8,8,0,0,1-5.3,1.59h-3V89.7c0,1.7.18,2.77.55,3.23s1.25.69,2.63.69v.7h-9v-.7c1.37,0,2.24-.24,2.61-.71s.57-1.54.57-3.21V78.83c0-1.68-.18-2.74-.55-3.2S535.5,75,534.11,75v-.71H543a8,8,0,0,1,5.3,1.59A5.09,5.09,0,0,1,550.14,79.9Zm-3,0a4.64,4.64,0,0,0-1.08-3.18,3.94,3.94,0,0,0-3.17-1.24H540v8.83h2.95a4,4,0,0,0,3.17-1.22A4.63,4.63,0,0,0,547.17,79.9Z"/><path class="cls-2" d="M558.87,94.32v-.7c1.37,0,2.24-.24,2.61-.71s.57-1.54.57-3.21V78.83c0-1.68-.18-2.74-.55-3.2s-1.24-.68-2.63-.68v-.71h9V75c-1.38,0-2.26.22-2.63.68s-.55,1.52-.55,3.2V89.7c0,1.7.18,2.77.55,3.23s1.25.69,2.63.69v.7Z"/><path class="cls-2" d="M577.14,93.62c1.36,0,2.23-.24,2.61-.71s.57-1.54.57-3.21V78.83c0-1.68-.18-2.74-.55-3.2s-1.25-.68-2.63-.68v-.71H592.4l.3,4.42H592l-.17-.67a3.86,3.86,0,0,0-1.05-2,5,5,0,0,0-2.83-.52h-5V83h1.67c1.67,0,2.74-.18,3.2-.55s.68-1.25.68-2.66h.7v7.66h-.7c0-1.4-.23-2.29-.68-2.66s-1.53-.55-3.2-.55H583v4.9c0,1.68.18,2.75.55,3.21s1.24.69,2.63.69h2.87a5,5,0,0,0,2.83-.54,3.5,3.5,0,0,0,1-2l.17-.67h.7l-.26,4.45h-16.4Z"/><path class="cls-2" d="M623.25,78.76h-.71l-.16-.67a3.78,3.78,0,0,0-1.06-2,5,5,0,0,0-2.83-.52h-4.38V89.7a6,6,0,0,0,.55,3.23q.55.69,2.67.69v.7h-9.07v-.7c1.38,0,2.26-.24,2.64-.71s.57-1.54.57-3.21V75.55h-4.38a5,5,0,0,0-2.81.52,3.72,3.72,0,0,0-1.08,2l-.16.67h-.7l.3-4.52H623Z"/><path class="cls-2" d="M644.82,89.37a16.54,16.54,0,0,0,3.15,3,7,7,0,0,0,3.08,1.29v.7h-5.52l-6.62-8.8h-1.58V89.7a6,6,0,0,0,.55,3.23c.37.46,1.25.69,2.63.69v.7h-9v-.7c1.36,0,2.23-.24,2.61-.71s.57-1.54.57-3.21V78.83a5.82,5.82,0,0,0-.56-3.2c-.36-.46-1.24-.68-2.62-.68v-.71h8.83a8,8,0,0,1,5.3,1.59,5.33,5.33,0,0,1,.32,7.85,7.12,7.12,0,0,1-4.39,1.84Zm-.29-9.47a4.69,4.69,0,0,0-1.07-3.18,4,4,0,0,0-3.18-1.24h-2.95v8.83h2.95a4,4,0,0,0,3.18-1.22A4.68,4.68,0,0,0,644.53,79.9Z"/><path class="cls-2" d="M671.16,94.89a11,11,0,0,1-7.86-3.11,10.2,10.2,0,0,1,0-15,11.51,11.51,0,0,1,15.76,0,10.22,10.22,0,0,1,0,15A11.09,11.09,0,0,1,671.16,94.89Zm-8-10.61a10.88,10.88,0,0,0,2,6.44,6.79,6.79,0,0,0,6,2.83,6.86,6.86,0,0,0,6-2.83,10.83,10.83,0,0,0,2-6.44,11.05,11.05,0,0,0-2-6.46,7.73,7.73,0,0,0-12,0A11,11,0,0,0,663.2,84.28Z"/><path class="cls-3" d="M158,86a2.42,2.42,0,0,0,0-3.4l-72-72a2.42,2.42,0,0,0-3.4,0l-72,72a2.42,2.42,0,0,0,0,3.4l72,72a2.42,2.42,0,0,0,3.4,0Z"/><path class="cls-4" d="M84.3,159.93h0a3.63,3.63,0,0,1-2.58-1.06l-72-72a3.65,3.65,0,0,1,0-5.16l72-72a3.74,3.74,0,0,1,5.16,0l72,72a3.66,3.66,0,0,1,0,5.16h0l-72,72A3.65,3.65,0,0,1,84.3,159.93Zm0-148.83a1.1,1.1,0,0,0-.81.33l-72,72a1.16,1.16,0,0,0,0,1.63l72,72a1.14,1.14,0,0,0,.81.33h0a1.14,1.14,0,0,0,.81-.33l72-72h0a1.15,1.15,0,0,0,0-1.63l-72-72A1.1,1.1,0,0,0,84.3,11.1Z"/><path class="cls-5" d="M74.23,89.09V87.86H42.55v1.23c0,6.54,6.73,11.83,15.84,11.83S74.23,95.63,74.23,89.09Z"/><path class="cls-5" d="M126.89,87.86H94.67v1.23c0,6.54,7,11.83,16.11,11.83s16.3-5.89,16.3-12.43Z"/><path class="cls-5" d="M87.51,115.39c-.1-.63-.41-13.62-.57-19.75-.17-7.19-.31-14.25-.52-21.44-.11-3.91-.31-7.71-.47-11.61,2-1.26,3.37-2.79,3.67-5,4.13-3.4,6.95-3.32,11-.74,3,1.9,5.66,3.59,7.9,5.11l0-1.08-11,24.95h2.87l9.89-23.35,9.87,23.35H123l-11-25a3.5,3.5,0,0,1,.06.48,13.92,13.92,0,0,1,1.13-.93,3.29,3.29,0,0,0-.13-4.82c-1.47-1.37-3.34-1.27-4.95.21a12,12,0,0,0-.89,1.11s1.5,1,1.9,1.22c.48-.34.91-1.19,1.66-1a1.07,1.07,0,0,1,.66,1.73,1.81,1.81,0,0,1-2.33.18,38.35,38.35,0,0,1-3.53-2.12c-1.4-.92-2.73-2-4.16-2.85a11,11,0,0,0-11.32-.65c-.35.17-.63.32-1.09.52a6.32,6.32,0,0,0-2.76-2.48c.14-1,.55-2.34.73-3.65-.66-1.53-2.25-5.9-2.25-5.9h-1s-1.6,4.37-2.25,5.9c.18,1.31.59,2.53.73,3.56a6.31,6.31,0,0,0-2.76,2.52l-1.08-.49A11,11,0,0,0,67,54c-1.42.91-2.76,1.94-4.16,2.86A38.45,38.45,0,0,1,59.35,59,1.82,1.82,0,0,1,57,58.83a1.07,1.07,0,0,1,.67-1.73c.74-.16,1.17.7,1.65,1,.4-.21,1.9-1.19,1.9-1.19s-.62-.83-.89-1.09a3.5,3.5,0,0,0-5.08,4.81c.32.3.83.87,1.14,1.2,0,0,0-1,.05-1l-11,25h2.87l9.87-23.35,9.89,23.35H71l-11-24.95,0,.54c2.25-1.52,4.89-2.92,7.9-4.82,4.09-2.59,6.91-2.52,11,.88a7,7,0,0,0,3.67,5.11c-.17,3.9-.36,7.8-.47,11.71-.21,7.19-.35,14.38-.52,21.58-.16,6.13-.46,18.88-.57,19.51-4.95.39-12.8,3.14-15.86,11.31h38.27C100.31,118.52,92.46,115.78,87.51,115.39Z"/></g></g></svg>