<svg xmlns="http://www.w3.org/2000/svg" viewBox="0 0 277.21 80.13"><defs><style>.cls-1,.cls-5{fill:#058b52;}.cls-2,.cls-3{fill:#00669e;}.cls-3,.cls-5{fill-rule:evenodd;}.cls-4,.cls-6{fill:none;stroke-miterlimit:22.93;stroke-width:0.57px;}.cls-4{stroke:#00669e;}.cls-6{stroke:#058b52;}</style></defs><title>moretti-logo</title><g id="Capa_2" data-name="Capa 2"><g id="Capa_1-2" data-name="Capa 1"><path class="cls-1" d="M146.41,79.74V67.82h11.17v1.74h-9.32v3h6.12v1.72h-6.12V78h9.84v1.72ZM137,69.53h-3.45V78H137a4.72,4.72,0,0,0,3.34-1.13,4.06,4.06,0,0,0,1.22-3.1,4,4,0,0,0-1.26-3.07A4.61,4.61,0,0,0,137,69.53Zm0-1.71a6.7,6.7,0,0,1,4.71,1.66,5.68,5.68,0,0,1,1.78,4.34,5.57,5.57,0,0,1-1.75,4.31A6.76,6.76,0,0,1,137,79.74h-5.28V67.82Zm-30,10.4.9-1.57a10.25,10.25,0,0,0,2.69,1.28,9.11,9.11,0,0,0,2.78.47,4.59,4.59,0,0,0,2.57-.65,1.93,1.93,0,0,0,1-1.66,1.62,1.62,0,0,0-.9-1.52,6.48,6.48,0,0,0-2.82-.55,10.07,10.07,0,0,1-4.47-.75,2.53,2.53,0,0,1-1.22-2.36,2.89,2.89,0,0,1,1.34-2.47,6.09,6.09,0,0,1,3.59-.94,10.34,10.34,0,0,1,3,.44,10.93,10.93,0,0,1,2.79,1.28l-.94,1.54a9.85,9.85,0,0,0-2.4-1.16,8.23,8.23,0,0,0-2.46-.41,4.45,4.45,0,0,0-2.19.47,1.43,1.43,0,0,0-.82,1.24,1.16,1.16,0,0,0,.83,1.13,8.71,8.71,0,0,0,2.88.33,7.75,7.75,0,0,1,4.3,1,3.19,3.19,0,0,1,1.45,2.86A3.42,3.42,0,0,1,117.33,79a6.16,6.16,0,0,1-3.82,1.11,12.71,12.71,0,0,1-3.44-.49A12.15,12.15,0,0,1,106.94,78.22ZM93.61,79.74V67.82h11.18v1.74H95.47v3h6.12v1.72H95.47V78h9.84v1.72ZM80,74.54v5.2H78.15V67.85h8.19a4.28,4.28,0,0,1,2.87.88,3,3,0,0,1,1,2.44,3.2,3.2,0,0,1-.82,2.2,3.44,3.44,0,0,1-2.13,1.14l3.32,5.23h-2l-3.39-5.2Zm0-1.75h6.33a2.27,2.27,0,0,0,1.48-.42,1.5,1.5,0,0,0,.51-1.2A1.46,1.46,0,0,0,87.82,70a2.27,2.27,0,0,0-1.48-.42H80ZM67.77,80.11a7.67,7.67,0,0,1-5.24-1.8,6,6,0,0,1,0-9,8.66,8.66,0,0,1,10.52,0,5.68,5.68,0,0,1,2,4.51A5.76,5.76,0,0,1,73,78.32,7.66,7.66,0,0,1,67.77,80.11Zm0-1.74a5.81,5.81,0,0,0,3.9-1.29,4.34,4.34,0,0,0,0-6.57,6.5,6.5,0,0,0-7.77,0,4.35,4.35,0,0,0,0,6.57A5.75,5.75,0,0,0,67.77,78.37Zm-21.45-.15.9-1.57a10.25,10.25,0,0,0,2.69,1.28,9.11,9.11,0,0,0,2.78.47,4.59,4.59,0,0,0,2.57-.65,1.93,1.93,0,0,0,1-1.66,1.62,1.62,0,0,0-.9-1.52A6.48,6.48,0,0,0,52.52,74a10.07,10.07,0,0,1-4.47-.75,2.53,2.53,0,0,1-1.22-2.36,2.89,2.89,0,0,1,1.34-2.47,6.09,6.09,0,0,1,3.59-.94,10.34,10.34,0,0,1,3,.44,10.93,10.93,0,0,1,2.79,1.28l-.94,1.54a9.85,9.85,0,0,0-2.4-1.16,8.23,8.23,0,0,0-2.46-.41,4.45,4.45,0,0,0-2.19.47,1.43,1.43,0,0,0-.82,1.24A1.16,1.16,0,0,0,49.55,72a8.71,8.71,0,0,0,2.88.33,7.75,7.75,0,0,1,4.3,1,3.19,3.19,0,0,1,1.45,2.86A3.42,3.42,0,0,1,56.71,79a6.15,6.15,0,0,1-3.81,1.11,12.72,12.72,0,0,1-3.45-.49A12.15,12.15,0,0,1,46.32,78.22ZM33,79.74V67.82H44.17v1.74H34.85v3H41v1.72H34.85V78h9.84v1.72ZM17.81,78.22l.9-1.57a10.25,10.25,0,0,0,2.69,1.28,9.11,9.11,0,0,0,2.78.47,4.59,4.59,0,0,0,2.57-.65,2,2,0,0,0,1-1.66,1.62,1.62,0,0,0-.9-1.52A6.48,6.48,0,0,0,24,74a10.07,10.07,0,0,1-4.47-.75,2.53,2.53,0,0,1-1.22-2.36,2.89,2.89,0,0,1,1.34-2.47,6.08,6.08,0,0,1,3.58-.94,10.35,10.35,0,0,1,3,.44A10.93,10.93,0,0,1,29,69.22l-.94,1.54a9.85,9.85,0,0,0-2.4-1.16,8.23,8.23,0,0,0-2.46-.41,4.45,4.45,0,0,0-2.19.47,1.43,1.43,0,0,0-.82,1.24A1.16,1.16,0,0,0,21,72a8.67,8.67,0,0,0,2.88.33,7.75,7.75,0,0,1,4.3,1,3.19,3.19,0,0,1,1.45,2.86A3.42,3.42,0,0,1,28.2,79a6.16,6.16,0,0,1-3.82,1.11,12.71,12.71,0,0,1-3.44-.49A12.15,12.15,0,0,1,17.81,78.22ZM0,79.74,7.55,64.33H9.14l7.64,15.41H14.7l-2.09-4.15H4.09l-2,4.15Zm5-5.95h6.79L8.35,67Z"/><path class="cls-1" d="M265.13,78.21l.9-1.57a10.25,10.25,0,0,0,2.69,1.28,9.11,9.11,0,0,0,2.78.47,4.59,4.59,0,0,0,2.57-.65,1.94,1.94,0,0,0,1-1.67,1.61,1.61,0,0,0-.9-1.51,6.48,6.48,0,0,0-2.82-.55,10.07,10.07,0,0,1-4.47-.75,2.53,2.53,0,0,1-1.22-2.36A2.87,2.87,0,0,1,267,68.43a6.11,6.11,0,0,1,3.59-.94,10,10,0,0,1,3,.44,10.93,10.93,0,0,1,2.79,1.28l-.94,1.54a9.5,9.5,0,0,0-2.4-1.16,8.23,8.23,0,0,0-2.46-.41,4.38,4.38,0,0,0-2.18.47,1.42,1.42,0,0,0-.83,1.24,1.17,1.17,0,0,0,.83,1.13,8.67,8.67,0,0,0,2.88.33,7.75,7.75,0,0,1,4.3,1A3.19,3.19,0,0,1,277,76.18,3.42,3.42,0,0,1,275.52,79a6.16,6.16,0,0,1-3.82,1.11,12.71,12.71,0,0,1-3.44-.49,12.15,12.15,0,0,1-3.13-1.4m-9.32,1.89a7.67,7.67,0,0,1-5.24-1.8,6,6,0,0,1,0-9,8.68,8.68,0,0,1,10.52,0,6,6,0,0,1,0,9A7.71,7.71,0,0,1,255.81,80.1Zm0-1.74a5.81,5.81,0,0,0,3.9-1.29,4.34,4.34,0,0,0,0-6.57,6.5,6.5,0,0,0-7.77,0,4.35,4.35,0,0,0,0,6.57A5.75,5.75,0,0,0,255.81,78.36Zm-19.87-3.83v5.2h-1.86V67.84h8.19a4.28,4.28,0,0,1,2.87.88,3,3,0,0,1,1,2.44,3.21,3.21,0,0,1-.82,2.2,3.44,3.44,0,0,1-2.13,1.14l3.32,5.23h-2l-3.38-5.2Zm0-1.75h6.33a2.27,2.27,0,0,0,1.48-.42,1.5,1.5,0,0,0,.51-1.2,1.46,1.46,0,0,0-.51-1.19,2.27,2.27,0,0,0-1.48-.42h-6.33Zm-17.76-4.94H220v7.63a2.78,2.78,0,0,0,.81,2.32,9,9,0,0,0,6.45,0,2.75,2.75,0,0,0,.81-2.32V67.84H230V76a3.61,3.61,0,0,1-1.39,3.17,11,11,0,0,1-9,0A3.63,3.63,0,0,1,218.18,76Zm-8.36,7.26V73.38h4.92V77a6.69,6.69,0,0,1-2.7,2.33,8.94,8.94,0,0,1-3.85.79,8,8,0,0,1-5.39-1.78,5.91,5.91,0,0,1,0-9,8,8,0,0,1,5.38-1.79,9,9,0,0,1,3.66.71,6.75,6.75,0,0,1,2.66,2.09l-1.43,1A5.24,5.24,0,0,0,211,69.77a7,7,0,0,0-2.84-.56,6.09,6.09,0,0,0-4,1.29,4.23,4.23,0,0,0,0,6.56,6.06,6.06,0,0,0,4,1.3A7.2,7.2,0,0,0,211,77.8a3.68,3.68,0,0,0,1.82-1.42V75.1Zm-22.44,4.63V67.81h11.18v1.74h-9.32v3h6.11v1.72h-6.11V78h9.83v1.72Zm-18.26-2.32,1.12-1.65a13.35,13.35,0,0,0,3.4,1.93,10,10,0,0,0,3.5.67,6,6,0,0,0,3.47-.91,2.71,2.71,0,0,0,1.33-2.33,2.25,2.25,0,0,0-1-1.86,5.09,5.09,0,0,0-2.64-.87c-.27,0-.66-.06-1.17-.08a17.31,17.31,0,0,1-5.19-.9,4,4,0,0,1-1.63-1.33,3.22,3.22,0,0,1-.56-1.84,3.63,3.63,0,0,1,1.66-3.06,7.21,7.21,0,0,1,4.31-1.2,11.89,11.89,0,0,1,3.81.63,12.89,12.89,0,0,1,3.57,1.88L182,68.09a11,11,0,0,0-3-1.73,9.21,9.21,0,0,0-3.23-.58,5.58,5.58,0,0,0-2.88.68,2,2,0,0,0-1.13,1.7,1.56,1.56,0,0,0,.18.74,2,2,0,0,0,.56.63c.63.47,2,.78,4.11.91,1,0,1.72.11,2.25.18a6.44,6.44,0,0,1,3.71,1.5A4,4,0,0,1,184,75.18a4.23,4.23,0,0,1-1.88,3.55,8,8,0,0,1-4.92,1.4,12.64,12.64,0,0,1-8-2.72Z"/><path class="cls-2" d="M276.91,54h-7.36V22.44h7.36Zm-10-24.18H252.68V54h-7.37V29.8H231.08V22.44h35.83Zm-38.47,0H214.2V54h-7.36V29.8H192.6V22.44h35.84Zm-38.91,0H163.21v4.73h24.6v7.36h-24.6v4.73h26.26V54H155.84V22.44h33.69ZM150.26,54H140.2L124.43,36.31h19c1.35,0,2-1.09,2-3.26s-.67-3.25-2-3.25H120.56V54H113.2V22.44h30.62a7.89,7.89,0,0,1,6.69,3.31,11.8,11.8,0,0,1,2.27,7.3,11.81,11.81,0,0,1-2.27,7.31,7.91,7.91,0,0,1-6.69,3.31H141Zm-47.5-10V32.43c0-1.75-1-2.63-2.94-2.63H81.29c-2,0-3,.88-3,2.63V44c0,1.75,1,2.63,3,2.63H99.82C101.78,46.62,102.76,45.74,102.76,44Zm7.37,0a9.44,9.44,0,0,1-3,7.14A10.25,10.25,0,0,1,99.82,54H81.29A10.28,10.28,0,0,1,74,51.14,9.47,9.47,0,0,1,71,44V32.42a9.45,9.45,0,0,1,3-7.14,10.28,10.28,0,0,1,7.31-2.84H99.82a10.25,10.25,0,0,1,7.3,2.84,9.43,9.43,0,0,1,3,7.14Z"/><path class="cls-3" d="M10,.33H271.91c4.67.19,5,5.48,5,8.22H59.84l-.75,1L41.15,34.88,22.85,8.56H11.58l-.11,45.71H3.24C.73,40,.43,25.6,2.32,7.94,3.24-.69,5.86.3,10,.33Z"/><path class="cls-4" d="M10,.33H271.91c4.67.19,5,5.48,5,8.22H59.84l-.75,1L41.15,34.88,22.85,8.56H11.58l-.11,45.71H3.24C.73,40,.43,25.6,2.32,7.94,3.24-.69,5.86.3,10,.33Z"/><polygon class="cls-5" points="22.2 26.7 41.26 54.27 22.2 54.27 22.2 26.7"/><polygon class="cls-6" points="22.2 26.7 41.26 54.27 22.2 54.27 22.2 26.7"/><polygon class="cls-5" points="59.89 26.7 40.83 54.27 59.89 54.27 59.89 26.7"/><polygon class="cls-6" points="59.89 26.7 40.83 54.27 59.89 54.27 59.89 26.7"/></g></g></svg>